<?xml version="1.0" standalone="no"?>
<!DOCTYPE svg PUBLIC "-//W3C//DTD SVG 20010904//EN"
 "http://www.w3.org/TR/2001/REC-SVG-20010904/DTD/svg10.dtd">
<svg version="1.0" xmlns="http://www.w3.org/2000/svg"
 width="242.000000pt" height="194.000000pt" viewBox="0 0 242.000000 194.000000"
 preserveAspectRatio="xMidYMid meet">
<metadata>
Created by potrace 1.16, written by Peter Selinger 2001-2019
</metadata>
<g transform="translate(0.000000,194.000000) scale(0.100000,-0.100000)"
fill="#000000" stroke="none">
<path d="M1116 1843 l-55 -97 55 -102 55 -103 -83 -43 -83 -43 -152 -265 c-84
-146 -164 -286 -178 -312 l-26 -48 83 48 83 47 121 -3 120 -3 23 -46 c25 -52
23 -53 69 32 22 41 28 67 32 144 l5 93 43 -76 c24 -42 46 -76 48 -76 3 0 -9
26 -27 58 -18 31 -40 69 -49 84 -8 16 -18 28 -22 28 -3 0 -34 -50 -68 -111
-34 -60 -67 -112 -74 -115 -7 -3 -55 -3 -107 -2 l-95 3 165 289 c92 159 171
291 177 293 11 4 88 -125 353 -589 62 -108 118 -198 125 -200 6 -2 59 -2 118
1 l107 6 -347 603 c-190 331 -350 602 -354 602 -4 0 -32 -44 -62 -97z m408
-511 c185 -321 336 -585 336 -587 0 -3 -32 14 -71 38 l-72 42 -256 446 c-141
246 -263 456 -271 467 -13 18 -21 20 -62 13 -29 -5 -48 -4 -48 2 0 18 95 176
102 169 4 -4 158 -269 342 -590z"/>
<path d="M547 853 c-24 -43 -49 -88 -56 -100 l-12 -23 343 0 343 0 15 28 c9
15 31 53 49 85 18 31 30 57 28 57 -3 0 -26 -36 -51 -80 -26 -44 -50 -80 -55
-80 -4 0 -16 18 -26 40 l-18 40 -236 0 -236 -1 -65 -39 c-35 -22 -66 -37 -68
-35 -2 2 17 41 43 87 26 46 50 86 52 91 2 4 2 7 -1 7 -2 0 -24 -35 -49 -77z"/>
<path d="M447 414 c-16 -5 -17 -20 -15 -167 l3 -162 39 -6 c42 -7 116 9 155
32 60 37 82 165 38 229 -12 19 -36 42 -53 52 -31 18 -134 31 -167 22z m123
-79 c18 -9 32 -26 35 -43 4 -15 8 -36 10 -46 12 -59 -72 -131 -102 -89 -14 18
-19 174 -6 186 10 11 32 8 63 -8z"/>
<path d="M1298 413 c-16 -4 -18 -20 -18 -164 l0 -159 35 0 c32 0 35 3 35 29 0
42 11 91 21 91 5 0 22 -29 38 -64 28 -62 31 -65 63 -63 18 1 34 6 35 9 1 4 -9
33 -22 63 -30 67 -30 70 -5 102 27 34 26 85 -2 118 -31 36 -119 54 -180 38z"/>
<path d="M1743 409 c-85 -25 -98 -139 -21 -180 12 -7 38 -14 57 -16 80 -10 76
-63 -4 -63 -27 0 -51 7 -68 20 -34 27 -37 26 -37 -21 0 -36 3 -41 35 -55 19
-7 56 -14 83 -14 125 0 168 149 57 196 -19 8 -45 14 -58 14 -33 0 -54 25 -37
44 12 16 67 14 100 -4 28 -15 30 -13 30 25 0 23 -6 38 -18 44 -29 15 -85 20
-119 10z"/>
<path d="M2273 413 c-9 -3 -13 -26 -13 -64 l0 -59 -50 0 -50 0 0 60 0 60 -35
0 -35 0 0 -160 0 -160 26 -6 c35 -9 42 2 46 71 l3 60 48 3 47 3 0 -64 0 -65
33 -5 c17 -2 34 -3 36 -1 6 6 7 312 1 317 -10 9 -45 15 -57 10z"/>
<path d="M46 278 c-52 -151 -57 -183 -24 -194 24 -7 48 17 48 48 0 15 9 18 54
18 51 0 55 -2 64 -29 8 -22 18 -30 44 -34 18 -3 36 -2 40 2 3 3 -19 77 -50
163 l-57 158 -36 0 -36 0 -47 -132z"/>
<path d="M887 253 c-31 -86 -55 -158 -54 -160 2 -1 19 -4 38 -5 31 -3 35 0 44
29 9 32 11 33 61 33 48 0 53 -2 62 -29 8 -22 18 -30 44 -34 18 -3 36 -2 39 2
4 3 -19 77 -50 163 l-56 158 -36 0 -36 0 -56 -157z"/>
</g>
</svg>
